Coordinates
version=1
nRows=12
nColumns=24
inDegrees=yes

Units are S.I. units (second, meters, Newtons, ...)
Angles are in degrees.

endheader
time	pelvis_tilt	pelvis_list	pelvis_rotation	pelvis_tx	pelvis_ty	pelvis_tz	hip_flexion_r	hip_adduction_r	hip_rotation_r	knee_angle_r	ankle_angle_r	subtalar_angle_r	mtp_angle_r	hip_flexion_l	hip_adduction_l	hip_rotation_l	knee_angle_l	ankle_angle_l	subtalar_angle_l	mtp_angle_l	lumbar_extension	lumbar_bending	lumbar_rotation
      2.07000000	     -7.08744330	     -6.07878361	      9.55841320	      0.88711515	      1.25412085	     -0.91006073	     -3.72187887	      9.14124327	    -13.93891265	    -31.34533872	    -12.34875873	     12.95275111	     16.82176151	     32.86930297	      8.88137652	     24.29227554	    -20.26142086	    -15.10266572	    -25.49536411	      0.59803508	     -0.54306399	      5.46799692	     -9.85809635
      2.07500000	     -7.14723064	     -5.88572013	      9.71845057	      0.89383513	      1.25523142	     -0.91033137	     -2.78257808	      8.45661673	    -14.83874606	    -33.13257112	    -13.81083225	     12.62203315	     16.52934212	     32.42201270	      9.10596533	     24.40066301	    -20.33878597	    -14.75713017	    -25.49935666	      0.56956961	     -0.49408048	      5.12241032	    -10.10797125
      2.08000000	     -7.25524734	     -5.67842775	      9.76876547	      0.90053495	      1.25634257	     -0.91048419	     -1.75210372	      7.74986902	    -15.52767384	    -34.96624368	    -15.10009671	     12.18852934	     15.03306514	     31.98761864	      9.27102328	     24.39041648	    -20.35291792	    -14.26122551	    -25.34669572	      0.41342159	     -0.39839306	      4.75683819	    -10.15001492
      2.08500000	     -7.30975864	     -5.46481337	      9.88029957	      0.90723031	      1.25750469	     -0.91076277	     -0.79189103	      7.00703709	    -16.29970235	    -36.72912144	    -16.12336915	     11.67101301	     14.83049302	     31.45650725	      9.46235419	     24.45405667	    -20.28986663	    -13.93901784	    -25.36647206	      0.37598669	     -0.35667417	      4.41093809	    -10.31706983
      2.09000000	     -7.44808432	     -5.30233160	      9.87068283	      0.91393008	      1.25863478	     -0.91092991	      0.29795064	      6.34177397	    -16.80759816	    -38.47431495	    -17.03240430	     10.98543177	     13.33994275	     31.00339488	      9.54056847	     24.37911168	    -20.19075336	    -13.39737039	    -25.29541081	      0.19075299	     -0.21468275	      4.13354586	    -10.36504107
      2.09500000	     -7.54321241	     -5.12645137	      9.90503745	      0.92060700	      1.25979658	     -0.91118044	      1.33485361	      5.65144544	    -17.36066292	    -40.15360219	    -17.58696905	     10.13963987	     12.97756587	     30.46977285	      9.64364385	     24.35247612	    -20.02394934	    -13.02886347	    -25.38273760	      0.13549387	     -0.12883968	      3.86701079	    -10.54077695
      2.10000000	     -7.65483814	     -4.96520195	      9.87100605	      0.92727583	      1.26098272	     -0.91138722	      2.41023485	      4.98842981	    -17.77233896	    -41.78569567	    -18.02594821	      9.36518079	     11.86294870	     29.92147073	      9.68432626	     24.27158253	    -19.79486870	    -12.54457895	    -25.30855336	     -0.04364067	     -0.01219631	      3.61997143	    -10.53743851
      2.10500000	     -7.74691997	     -4.80805542	      9.81156061	      0.93390580	      1.26218326	     -0.91157639	      3.47786658	      4.35638786	    -18.09494209	    -43.35023910	    -18.08552519	      8.38761402	     11.55640279	     29.33902964	      9.70065862	     24.14013119	    -19.52174158	    -12.15529358	    -25.41003289	     -0.10516731	      0.07154361	      3.40574691	    -10.59133677
      2.11000000	     -7.85406258	     -4.67385459	      9.71522454	      0.94055054	      1.26339384	     -0.91175601	      4.57160188	      3.76237594	    -18.34864905	    -44.82829963	    -18.06953361	      7.37037481	     11.02389771	     28.75111142	      9.67148708	     23.98243361	    -19.20653619	    -11.70882176	    -25.44214489	     -0.21324574	      0.18916592	      3.21962772	    -10.54842180
      2.11500000	     -7.95170787	     -4.53794362	      9.58387069	      0.94717351	      1.26464174	     -0.91189141	      5.66217622	      3.20960292	    -18.48228611	    -46.21860207	    -17.74163283	      6.34192884	     10.64591960	     28.10574074	      9.60545887	     23.79789474	    -18.78354241	    -11.32139972	    -25.47768275	     -0.30482127	      0.28643449	      3.05600736	    -10.55065035
      2.12000000	     -8.01873942	     -4.39942850	      9.46432579	      0.95377080	      1.26587610	     -0.91207381	      6.71874055	      2.65280739	    -18.64072582	    -47.53199432	    -17.22912675	      5.34548752	     10.35334670	     27.43192678	      9.55183498	     23.62000925	    -18.37172211	    -10.95030753	    -25.50156945	     -0.36815635	      0.35219356	      2.89945637	    -10.49527061
      2.12500000	     -8.15256822	     -4.31176326	      9.22651242	      0.96041777	      1.26712408	     -0.91210216	      7.87429684	      2.23369905	    -18.56285701	    -48.71157568	    -16.73190710	      4.14765505	      9.89806798	     26.79835274	      9.38089729	     23.30581196	    -17.87763473	    -10.51426388	    -25.53614643	     -0.49592948	      0.51013690	      2.81125814	    -10.39678638
